<?xml version="1.0" encoding="utf-8"?>
<!-- Generator: Adobe Illustrator 19.2.1, SVG Export Plug-In . SVG Version: 6.00 Build 0)  -->
<!DOCTYPE svg PUBLIC "-//W3C//DTD SVG 1.1//EN" "http://www.w3.org/Graphics/SVG/1.1/DTD/svg11.dtd">
<svg version="1.1" id="Ebene_1" xmlns="http://www.w3.org/2000/svg" xmlns:xlink="http://www.w3.org/1999/xlink" x="0px" y="0px"
	 viewBox="0 0 350 500" style="enable-background:new 0 0 350 500;" xml:space="preserve">
<style type="text/css">
	.st0{fill:#FFFFFF;}
	.st1{fill:#E9EDF0;}
	.st2{opacity:0.8;fill:#2A3138;}
	.st3{fill:#2A3138;}
	.st4{fill:#E1EDF5;}
</style>
<g>
	<rect y="0" class="st0" width="350" height="500"/>
	<rect x="0" y="350" class="st1" width="350" height="150"/>
	<g>
		<g>
			<path class="st2" d="M106.4,396.95c2.86,1.1,5.63,3.48,5.63,7.73c0,5.34-4.39,9.2-10.4,9.2H90.43c-0.52,0-0.91-0.43-0.91-0.91
				V381.4c0-0.48,0.38-0.91,0.91-0.91h10.69c5.77,0,9.92,3.82,9.92,8.83c0,3.58-2,6.25-4.63,7.54V396.95z M101.78,409.5
				c3.24,0,4.96-2.24,4.96-5.2c0-2.91-2.2-5.01-4.96-5.01h-7.44v10.21H101.78z M100.63,395c3.05,0,5.1-2.1,5.1-5.1
				c0-3.15-2.05-4.91-5.1-4.91h-6.25V395H100.63z"/>
			<path class="st2" d="M117.51,392.9c0-0.52,0.52-1.05,1.05-1.05h2.67c0.57,0,1.05,0.53,1.05,1.05v11.73
				c0,3.63,1.48,5.25,4.29,5.25c3.19,0,4.96-2.62,5.15-3.62V392.9c0-0.91,0.43-1.05,1.24-1.05h2.43c0.57,0,1.1,0.53,1.1,1.05v19.94
				c0,0.57-0.53,1.05-1.1,1.05h-1.14c-0.57,0-0.81-0.38-1-0.91l-0.57-1.57c-0.48,0.48-2.48,3-6.96,3c-6.58,0-8.2-4.34-8.2-10.11
				V392.9z"/>
			<path class="st2" d="M142.64,412.17c-0.33-0.24-0.62-0.67-0.38-1.15l1-2.05c0.24-0.48,0.86-0.62,1.43-0.29
				c1.29,0.71,2.86,1.62,5.48,1.62c1.86,0,2.91-0.91,2.91-2.15c0-1.48-1.67-2.43-4.72-3.82c-3.39-1.53-5.96-3.34-5.96-6.96
				c0-2.77,1.95-6.01,7.3-6.01c3.05,0,5.34,0.91,6.44,1.62c0.52,0.38,0.76,1.05,0.48,1.62l-0.76,1.53c-0.33,0.67-1,0.62-1.43,0.43
				c-1.53-0.67-3.01-1.1-4.72-1.1c-1.91,0-2.82,0.95-2.82,1.96c0,1.43,1.57,2.29,3.77,3.24c4.06,1.72,7.11,3.19,7.11,7.3
				c0,3.43-2.96,6.44-7.87,6.44C146.41,414.41,143.88,413.03,142.64,412.17z"/>
			<path class="st2" d="M162.43,383.93c0-1.81,1.38-3.24,3.15-3.24c1.81,0,3.24,1.43,3.24,3.24c0,1.76-1.43,3.19-3.24,3.19
				C163.82,387.13,162.43,385.7,162.43,383.93z M163.2,392.9c0-0.52,0.48-1.05,1.05-1.05h2.67c0.52,0,1.05,0.53,1.05,1.05v19.94
				c0,0.57-0.53,1.05-1.05,1.05h-2.67c-0.57,0-1.05-0.48-1.05-1.05V392.9z"/>
			<path class="st2" d="M175.02,392.9c0-0.52,0.48-1.05,1.05-1.05h1.14c0.48,0,0.81,0.24,0.91,0.67l0.67,1.91
				c0.48-0.57,3.01-3.05,7.4-3.05c6.72,0,8.54,4.68,8.54,10.4v11.07c0,0.57-0.52,1.05-1.05,1.05H191c-0.57,0-1.05-0.48-1.05-1.05
				v-11.26c0-3.58-1.48-5.68-4.34-5.68c-3.48,0-5.49,2.43-5.82,3.2v13.74c0,0.72-0.38,1.05-1.29,1.05h-2.43
				c-0.57,0-1.05-0.48-1.05-1.05V392.9z"/>
			<path class="st2" d="M211.17,391.37c5.72,0,10.06,4.24,10.06,10.11c0,0.38-0.05,1.15-0.1,1.53c-0.05,0.57-0.53,0.95-1,0.95
				h-15.22c0.05,2.96,2.72,6.01,6.58,6.01c2.53,0,4.05-0.91,5.39-1.86c0.48-0.33,0.91-0.48,1.29,0.1l1.29,2
				c0.38,0.48,0.57,0.91-0.1,1.48c-1.57,1.38-4.48,2.72-8.16,2.72c-6.68,0-11.02-5.25-11.02-11.54
				C200.2,396.67,204.54,391.37,211.17,391.37z M216.51,400.44c-0.1-2.67-2.2-5.01-5.44-5.01c-3.48,0-5.58,2.24-5.92,5.01H216.51z"
				/>
			<path class="st2" d="M225.71,412.17c-0.33-0.24-0.62-0.67-0.38-1.15l1-2.05c0.24-0.48,0.86-0.62,1.43-0.29
				c1.29,0.71,2.86,1.62,5.48,1.62c1.86,0,2.91-0.91,2.91-2.15c0-1.48-1.67-2.43-4.72-3.82c-3.39-1.53-5.96-3.34-5.96-6.96
				c0-2.77,1.95-6.01,7.3-6.01c3.05,0,5.34,0.91,6.44,1.62c0.52,0.38,0.76,1.05,0.48,1.62l-0.76,1.53c-0.33,0.67-1,0.62-1.43,0.43
				c-1.53-0.67-3.01-1.1-4.72-1.1c-1.91,0-2.82,0.95-2.82,1.96c0,1.43,1.57,2.29,3.77,3.24c4.06,1.72,7.11,3.19,7.11,7.3
				c0,3.43-2.96,6.44-7.87,6.44C229.48,414.41,226.95,413.03,225.71,412.17z"/>
			<path class="st2" d="M245.36,412.17c-0.33-0.24-0.62-0.67-0.38-1.15l1-2.05c0.24-0.48,0.86-0.62,1.43-0.29
				c1.29,0.71,2.86,1.62,5.49,1.62c1.86,0,2.91-0.91,2.91-2.15c0-1.48-1.67-2.43-4.72-3.82c-3.39-1.53-5.96-3.34-5.96-6.96
				c0-2.77,1.96-6.01,7.3-6.01c3.05,0,5.34,0.91,6.44,1.62c0.52,0.38,0.76,1.05,0.48,1.62l-0.76,1.53c-0.34,0.67-1,0.62-1.43,0.43
				c-1.53-0.67-3-1.1-4.72-1.1c-1.91,0-2.81,0.95-2.81,1.96c0,1.43,1.57,2.29,3.77,3.24c4.05,1.72,7.11,3.19,7.11,7.3
				c0,3.43-2.96,6.44-7.87,6.44C249.13,414.41,246.6,413.03,245.36,412.17z"/>
		</g>
		<g>
			<path class="st2" d="M98.64,436.5c0-0.48,0.38-0.91,0.91-0.91h10.54c5.87,0,10.68,4.77,10.68,10.54
				c0,5.91-4.82,10.73-10.64,10.73h-7.87v11.21c0,0.48-0.43,0.91-0.91,0.91h-1.81c-0.52,0-0.91-0.43-0.91-0.91V436.5z
				 M109.85,453.33c3.91,0,7.25-2.91,7.25-7.3c0-4.24-3.34-6.82-7.25-6.82h-7.58v14.12H109.85z"/>
			<path class="st2" d="M133.03,455c2.34,0,4.72,0.71,4.72,0.71c0.05-4.05-0.48-6.06-3.63-6.06c-3,0-5.53,0.95-6.53,1.29
				c-0.57,0.24-0.86-0.05-1.05-0.57l-0.48-1.29c-0.19-0.67,0.14-0.95,0.67-1.19c1.1-0.48,3.96-1.43,7.58-1.43
				c5.63,0,6.82,2.77,6.82,9.25v12.21c0,0.57-0.48,1.05-1.05,1.05h-0.91c-0.57,0-0.76-0.33-0.91-0.81l-0.43-1.48
				c-1.14,1.14-3.43,2.81-6.82,2.81c-3.86,0-6.82-2.77-6.82-7.2C124.2,458.1,127.35,455,133.03,455z M131.64,466.31
				c2.72,0,5.1-1.53,6.06-2.96v-4.48c-0.72-0.38-2.48-0.86-4.68-0.86c-3.05,0-5.34,1.48-5.34,4.29
				C127.68,464.54,129.21,466.31,131.64,466.31z"/>
			<path class="st2" d="M148.76,447.99c0-0.52,0.48-1.05,1.05-1.05h0.76c0.43,0,0.81,0.24,0.95,0.76l0.38,1.57
				c0,0,2.19-2.82,6.77-2.82c1.67,0,4.39,0.24,3.87,1.77l-0.62,1.72c-0.24,0.71-0.76,0.76-1.29,0.52c-0.52-0.24-1.33-0.62-2.38-0.62
				c-4.24,0-5.96,2.81-5.96,2.81v15.26c0,0.57-0.52,1.05-1.05,1.05h-1.43c-0.57,0-1.05-0.48-1.05-1.05V447.99z"/>
			<path class="st2" d="M166.07,449.99c-0.67,0-1.1-0.48-1.1-1.05v-0.95c0-0.62,0.43-1.05,1.1-1.05h2.91v-6.11
				c0-0.57,0.52-1,1.05-1.05l1.48-0.1c0.57-0.05,1,0.48,1,1.05v6.2H179c0.62,0,1.1,0.43,1.1,1.05v0.95c0,0.57-0.48,1.05-1.1,1.05
				h-6.49v13.17c0,2.29,0.71,3.15,1.96,3.15c2.05,0,3.43-0.86,4.34-1.43c0.86-0.52,1.14-0.1,1.38,0.43l0.43,1
				c0.29,0.71,0.19,1.05-0.38,1.43c-0.95,0.67-3.24,1.76-6.2,1.76c-4.2,0-5.06-2.67-5.06-6.11v-13.4H166.07z"/>
			<path class="st2" d="M186.01,447.99c0-0.52,0.48-1.05,1.05-1.05h0.76c0.48,0,0.76,0.19,0.86,0.67l0.48,1.67
				c0,0,2.81-2.82,7.39-2.82c6.39,0,7.96,4.15,7.96,9.83v11.64c0,0.57-0.52,1.05-1.05,1.05h-1.43c-0.57,0-1.05-0.48-1.05-1.05
				v-12.12c0-4.2-1.43-6.15-4.68-6.15c-4.15,0-6.77,3.05-6.77,3.05v15.21c0,0.57-0.52,1.05-1.05,1.05h-1.43
				c-0.57,0-1.05-0.48-1.05-1.05V447.99z"/>
			<path class="st2" d="M221.39,446.46c5.77,0,9.97,4.24,9.97,10.02c0,0.38-0.05,0.95-0.1,1.34c-0.05,0.57-0.52,0.95-1,0.95h-16.03
				c0.1,3.67,3.2,7.54,7.2,7.54c2.91,0,4.72-1,5.96-1.81c0.76-0.52,1.1-0.71,1.67,0.14l0.57,0.81c0.43,0.67,0.62,0.91-0.19,1.53
				c-1.34,1.05-4.24,2.53-8.06,2.53c-6.68,0-10.69-5.25-10.69-11.54C210.7,451.76,214.71,446.46,221.39,446.46z M227.83,455.96
				c-0.1-3.24-2.67-6.3-6.44-6.3c-3.72,0-6.68,2.86-7.11,6.3H227.83z"/>
			<path class="st2" d="M237.51,447.99c0-0.52,0.48-1.05,1.05-1.05h0.76c0.43,0,0.81,0.24,0.95,0.76l0.38,1.57
				c0,0,2.19-2.82,6.77-2.82c1.67,0,4.39,0.24,3.87,1.77l-0.62,1.72c-0.24,0.71-0.76,0.76-1.29,0.52c-0.52-0.24-1.33-0.62-2.38-0.62
				c-4.24,0-5.96,2.81-5.96,2.81v15.26c0,0.57-0.52,1.05-1.05,1.05h-1.43c-0.57,0-1.05-0.48-1.05-1.05V447.99z"/>
		</g>
	</g>
	
		<rect id="XMLID_958_" x="0" y="0" transform="matrix(4.489013e-11 1 -1 4.489013e-11 350 -1.273588e-08)" class="st3" width="350" height="350"/>
	<g>
		<g id="XMLID_985_">
			<path id="XMLID_987_" class="st4" d="M232.69,211.52c-8.43-6.35-20.85-11.16-34-16.27c-15.65-6.07-33.4-12.95-46.72-23.55
				c-15.09-12.01-22.43-27.17-22.43-46.34c0-17.19,7.14-31.9,20.64-42.53c15.14-11.92,38.08-18.22,66.33-18.22
				c7.81,0,15.26,0.48,22.18,1.43c0.61,0.08,1.2-0.25,1.45-0.79c0.26-0.56,0.13-1.21-0.33-1.62
				c-17.81-16.01-40.82-24.83-64.79-24.83c-25.91,0-50.27,10.09-68.58,28.41c-18.32,18.32-28.41,42.67-28.41,68.57
				c0,25.91,10.09,50.26,28.41,68.58c18.32,18.31,42.67,28.4,68.58,28.4c20.93,0,40.87-6.57,57.67-19c0.35-0.26,0.56-0.68,0.56-1.11
				C233.25,212.2,233.04,211.78,232.69,211.52z"/>
			<path id="XMLID_986_" class="st4" d="M271.57,126.81c-0.03-0.37-0.21-0.72-0.5-0.95c-20.24-16.8-36.61-23.65-56.5-23.65
				c-10.61,0-18.75,2.13-24.19,6.33c-4.71,3.64-7.19,8.7-7.19,14.65c0,16.66,20.36,24.25,43.93,33.04
				c12.15,4.53,24.71,9.22,36.24,15.61c0.21,0.11,0.44,0.17,0.68,0.17c0.16,0,0.32-0.03,0.47-0.08c0.38-0.14,0.68-0.43,0.83-0.8
				c4.4-11.28,6.64-23.18,6.64-35.35C271.98,132.91,271.84,129.9,271.57,126.81z"/>
		</g>
		<g id="XMLID_961_">
			<g id="XMLID_983_">
				<path id="XMLID_984_" class="st4" d="M51.77,276.86c-3.36-1.47-6.12-2.79-6.12-4.99c0-1.54,1.74-3.01,4.66-3.01
					c2.63,0,4.89,0.66,7.22,1.69c0.66,0.29,1.68,0.37,2.19-0.66l1.17-2.35c0.44-0.88,0.07-1.91-0.73-2.49
					c-1.68-1.1-5.18-2.49-9.85-2.49c-8.17,0-11.52,4.99-11.52,9.24c0,5.57,4.29,8.36,9.48,10.71c4.67,2.13,7.22,3.59,7.22,5.87
					c0,1.91-1.6,3.3-4.45,3.3c-4.01,0-6.42-1.39-8.39-2.49c-0.88-0.51-1.82-0.29-2.19,0.44l-1.53,3.15
					c-0.36,0.73,0.07,1.39,0.58,1.76c1.9,1.32,5.77,3.45,11.09,3.45c7.52,0,12.04-4.62,12.04-9.9
					C62.64,281.78,57.97,279.5,51.77,276.86z"/>
			</g>
			<path id="XMLID_980_" class="st4" d="M249.69,297.56c1.01-0.11,1.7-0.86,1.7-1.78v-17.2c0-8.8-1.07-15.62-12.34-15.62
				c-6.48,0-11.5,1.76-12.11,1.99c-0.84,0.31-1.37,0.84-1.14,2.07l0.69,2.91c0.23,0.99,0.91,1.68,1.98,1.45
				c1.83-0.54,5.79-1.68,9.83-1.68c4.42,0,5.79,2.53,5.64,8.11c0,0-3.43-1.07-7.08-1.07c-9.07,0-14.09,4.9-14.09,11.41
				c0,7.35,4.64,9.84,11.27,9.84c5.41,0,10.97-0.07,13.29-0.21L249.69,297.56z M243.85,291.33c-1.07,1.76-4.88,1.32-8.15,1.25
				c-3.66-0.08-5.49-1.36-5.49-4.5c0-3.68,3.12-5.82,7.24-5.82c3.2,0,5.94,0.92,6.4,1.22V291.33z"/>
			<path id="XMLID_977_" class="st4" d="M307.2,262.56c2.22,0,4.01-1.79,4.01-4.01c0-2.22-1.79-4.01-4.01-4.01
				c-2.21,0-4.01,1.79-4.01,4.01C303.2,260.77,304.99,262.56,307.2,262.56z M307.2,255.13c1.86,0,3.38,1.54,3.38,3.43
				c0,1.88-1.52,3.42-3.38,3.42c-1.86,0-3.37-1.54-3.37-3.42C303.83,256.67,305.34,255.13,307.2,255.13z"/>
			<path id="XMLID_974_" class="st4" d="M305.84,260.58h0.38c0.06,0,0.11-0.05,0.11-0.11v-1.48h0.87l0.76,1.51
				c0.02,0.05,0.06,0.08,0.12,0.08h0.43c0.1,0,0.14-0.09,0.1-0.17l-0.79-1.47c0.5-0.2,0.86-0.64,0.86-1.18
				c0-0.69-0.57-1.24-1.26-1.24h-1.57c-0.06,0-0.11,0.05-0.11,0.11v3.84C305.73,260.53,305.78,260.58,305.84,260.58z M306.34,257.08
				h1.03c0.38,0,0.71,0.31,0.71,0.69c0,0.4-0.33,0.72-0.71,0.72h-1.03V257.08z"/>
			<path id="XMLID_973_" class="st4" d="M85.06,262.56c-5.33,0-8.98,2.93-9.78,3.52v-15.13c0-0.81-0.8-1.61-1.61-1.61h-4.09
				c-0.88,0-1.61,0.81-1.61,1.61v45.41c0,0.88,0.73,1.61,1.61,1.61h4.01c1.02,0,1.68-0.66,1.68-1.61v-21.93
				c0.73-1.47,3.65-4.91,8.83-4.91c4.38,0,6.71,3.3,6.71,8.87v17.97c0,0.88,0.73,1.61,1.61,1.61h4.09c0.8,0,1.6-0.73,1.6-1.61
				v-17.82C98.12,269.31,94.62,262.56,85.06,262.56z"/>
			<path id="XMLID_970_" class="st4" d="M170.55,278.91c-0.4-11.51-5.2-16.35-16.26-16.35c-5.31,0-11.64,1.6-12.57,2.01
				c-1.15,0.5-2,1.09-2,1.9v0.67v2.46v7.95v1.08v30.96c0,0.88,0.73,1.61,1.61,1.61h3.39c1.09,0,1.75-0.66,1.75-1.61l0-12.19
				c1.03,0.27,6.27,0.72,10.64,0.58c7.8-0.25,13.04-5.94,13.48-15.55c0.06-1.31,0.05-3.13-0.03-4.31L170.55,278.91z M163.5,282.42
				c-0.15,6.52-2.04,9.41-7.51,9.71c-2.7,0.15-9.09-0.6-9.09-0.6c-0.26-0.09-0.45-0.2-0.45-0.45l-0.01-13.22v-7.5
				c0-0.2,0.15-0.37,0.35-0.39c0.75-0.08,3.51-0.97,7.49-0.97c6.66,0,9,0.98,9.22,9.45C163.52,279.57,163.53,281.13,163.5,282.42z"
				/>
			<path id="XMLID_969_" class="st4" d="M218.88,263.3h-3.06c-0.88,0-2.12,0-2.55,1.03l-5.4,19.51h-0.15l-9.05-20.46
				c-0.15-0.44-0.66-0.81-1.46-0.81h-0.51c-0.66,0-1.17,0.37-1.39,0.81l-9.12,20.39h-0.15l-5.55-19.43
				c-0.15-0.66-0.88-1.03-1.46-1.03h-4.38c-1.17,0-1.68,0.88-1.17,1.91l9.85,31.9c0.15,0.51,0.66,0.88,1.39,0.88h0.44
				c0.73,0,1.17-0.37,1.31-0.81l10.36-23.03h0.15l10.29,23.03c0.22,0.44,0.73,0.81,1.46,0.81h0.29c0.73,0,1.39-0.37,1.53-0.88
				l9.63-31.9C220.71,264.18,220.05,263.3,218.88,263.3z"/>
			<path id="XMLID_968_" class="st4" d="M272.71,262.97c-0.18,0-0.35,0.01-0.52,0.02c-0.3-0.01-0.58-0.02-0.89-0.02
				c-1.75,0-3.43,0.05-5,0.14v0c-3.03,0.12-4.82,0.35-6.1,0.5c0,0-0.81,0.08-1.77,0.2c-0.64,0.08-1.11,0.35-1.39,0.71
				c-0.2,0.21-0.31,0.48-0.31,0.8v0.11v0.67v2.46v6.82v20.99c0,0.88,0.73,1.61,1.61,1.61h3.36c1.39,0,2.34-0.15,2.34-1.61v-20.99h0
				v-4.82c0-0.2,0.32-0.46,0.49-0.56c0.83-0.5,2.8-0.85,6.78-0.85c0.39,0,0.64,0,0.93,0.02c0.91,0.09,2.35,0.37,2.82,0.64
				c0.73,0.37,1.61,0.15,2.04-0.8l1.75-2.88C279.94,263.85,275.92,262.97,272.71,262.97z"/>
			<path id="XMLID_965_" class="st4" d="M295.81,262.56c-10.14,0-16.78,8.14-16.78,17.67c0,9.68,6.64,17.75,16.86,17.75
				c5.62,0,10.07-2.05,12.48-4.18c1.02-0.88,0.73-1.54,0.15-2.27l-1.97-3.08c-0.58-0.88-1.24-0.66-1.97-0.15
				c-2.04,1.47-4.38,2.86-8.25,2.86c-5.91,0-10-4.69-10.07-9.24h23.28c0.73,0,1.46-0.59,1.53-1.47c0.07-0.59,0.15-1.76,0.15-2.35
				C311.21,269.09,304.57,262.56,295.81,262.56z M286.62,276.5c0.51-4.25,3.72-7.7,9.05-7.7c4.96,0,8.17,3.59,8.32,7.7H286.62z"/>
			<path id="XMLID_962_" class="st4" d="M133.87,273.04c-0.76-2.18-1.83-4.05-3.2-5.61c-1.37-1.56-3.01-2.76-4.91-3.6
				c-1.9-0.84-4.6-1.27-6.84-1.27c-2.24,0-4.93,0.42-6.83,1.27c-1.9,0.84-3.54,2.04-4.91,3.6c-1.37,1.56-2.44,3.43-3.2,5.61
				c-0.76,2.18-1.14,4.6-1.14,7.23c0,2.68,0.38,5.1,1.14,7.27c0.76,2.16,1.83,4.02,3.2,5.58c1.37,1.56,3.01,2.76,4.91,3.6
				c1.9,0.84,4.59,1.26,6.83,1.26c2.24,0,4.94-0.42,6.84-1.26c1.9-0.84,3.54-2.04,4.91-3.6c1.37-1.56,2.44-3.42,3.2-5.58
				c0.76-2.16,1.14-4.58,1.14-7.27C135.01,277.64,134.63,275.22,133.87,273.04z M118.74,292.14c-6.09,0-9.16-5.18-9.16-11.57
				s3.06-11.57,9.16-11.57c6.09,0,9.16,5.18,9.16,11.57S124.83,292.14,118.74,292.14z"/>
		</g>
	</g>
</g>
</svg>
